<?xml version="1.0" encoding="iso-8859-1"?>
<!-- Generator: Adobe Illustrator 16.0.0, SVG Export Plug-In . SVG Version: 6.00 Build 0)  -->
<!DOCTYPE svg PUBLIC "-//W3C//DTD SVG 1.1//EN" "http://www.w3.org/Graphics/SVG/1.1/DTD/svg11.dtd">
<svg xmlns="http://www.w3.org/2000/svg" xmlns:xlink="http://www.w3.org/1999/xlink" version="1.1" id="Capa_1" x="0px" y="0px" width="512px" height="512px" viewBox="0 0 339.083 339.084" style="enable-background:new 0 0 339.083 339.084;" xml:space="preserve">
<g>
	<g>
		<g>
			<path d="M293.337,74.434c-19.969-28.252-47.152-50.858-79.245-63.969C179.82-3.537,142.026-2.515,106.882,7.775     c-30.848,9.031-58.796,27.161-76.258,54.526c-15.194,23.813-20.548,53.077-17.637,80.941     c5.028,48.122,32.405,91.7,71.886,118.385c-0.49,8.593,2.437,17.005,8.883,24.055c6.227,6.81,14.63,11.484,23.521,14.842     c-7.74,11.245-19.829,18.765-32.505,23.712c-3.805,1.483-6.407,4.975-5.238,9.227c1,3.634,5.412,6.729,9.226,5.238     c18.02-7.033,33.491-17.623,43.173-33.754c1.496,0.358,2.983,0.701,4.448,1.013c19.517,4.162,39.877,4.761,59.687,2.688     c38.422-4.022,75.903-20.62,101.347-50.345C342.76,205.322,331.215,128.025,293.337,74.434z M101.807,271.617     c5.951,3.046,12.099,5.752,18.439,8.04c1.773,0.64,3.562,1.232,5.356,1.798c-0.462,1.844-1.007,3.665-1.621,5.447     c-4.899-1.812-9.554-4.06-14.02-7.023C106.809,277.784,103.66,274.518,101.807,271.617z M101.87,254.521     c1.171-2.592,2.825-5.15,5.014-6.663c3.531-2.442,7.377-1.857,11.31,0.389c4.932,2.817,8.108,8.654,8.836,14.176     c0.16,1.217,0.257,2.457,0.306,3.711C118.444,263.081,109.922,259.181,101.87,254.521z M285.499,249.212     c-24.954,28.659-61.892,42.97-99.175,45.239c-16.011,0.976-32.3,0.107-47.982-3.419c0.637-1.889,1.214-3.831,1.717-5.813     c6.489,1.356,13.063,2.321,19.668,2.958c9.629,0.931,9.539-14.079,0-15c-5.943-0.571-11.782-1.527-17.504-2.818     c0.327-10.134-1.893-20.146-8.229-27.91c-5.644-6.917-14.315-11.494-23.36-11.085c-9.718,0.438-16.854,6.82-21.285,15.022     c-27.161-19.601-47.63-48.235-56.967-81.11c-7.416-26.109-7.287-53.346,2.698-78.946c10.181-26.102,32.408-46.269,58.81-58.002     c31.706-14.091,69.574-17.814,102.944-8.044c31.753,9.296,58.972,30.259,79.303,55.987     C314.463,124.77,328.773,199.514,285.499,249.212z" fill="#FFFFFF"/>
		</g>
	</g>
</g>
<g>
</g>
<g>
</g>
<g>
</g>
<g>
</g>
<g>
</g>
<g>
</g>
<g>
</g>
<g>
</g>
<g>
</g>
<g>
</g>
<g>
</g>
<g>
</g>
<g>
</g>
<g>
</g>
<g>
</g>
</svg>
